Coordinates
version=1
nRows=12
nColumns=24
inDegrees=yes

Units are S.I. units (second, meters, Newtons, ...)
Angles are in degrees.

endheader
time	pelvis_tilt	pelvis_list	pelvis_rotation	pelvis_tx	pelvis_ty	pelvis_tz	hip_flexion_r	hip_adduction_r	hip_rotation_r	knee_angle_r	ankle_angle_r	subtalar_angle_r	mtp_angle_r	hip_flexion_l	hip_adduction_l	hip_rotation_l	knee_angle_l	ankle_angle_l	subtalar_angle_l	mtp_angle_l	lumbar_extension	lumbar_bending	lumbar_rotation
      5.02000000	     13.55855144	     -6.67940440	     13.25957310	      0.41793588	      0.93507806	     -0.23583447	     -9.62561917	     14.07885931	     -3.86866367	     -9.65756214	     21.45003827	     -4.54785764	      0.00000000	      5.85065924	     -8.62859108	      9.53334427	    -66.23660449	     15.63292066	     -2.14857559	      0.00000000	    -26.81243361	     11.07724732	     -9.88837275
      5.02500000	     13.58576572	     -6.47214331	     12.80264913	      0.42372495	      0.93573815	     -0.23534326	    -10.35286739	     13.87383291	     -3.64818081	     -9.22926159	     21.55791843	     -4.21870061	      0.00000000	      6.32146101	     -8.18498021	      9.18968028	    -65.52130785	     16.02093419	     -2.39372438	      0.00000000	    -26.98009480	     10.67180384	     -9.39594089
      5.03000000	     13.53023422	     -6.26722359	     12.46378598	      0.42946549	      0.93621748	     -0.23496195	    -10.96798009	     13.67244463	     -3.53790244	     -8.79935982	     21.66145819	     -3.96917254	      0.00000000	      6.90596099	     -7.71953220	      8.97867720	    -64.75604743	     16.42905516	     -2.54533761	      0.00000000	    -27.03282106	     10.30672994	     -9.09069891
      5.03500000	     13.43888234	     -6.09045790	     12.17058513	      0.43527966	      0.93660989	     -0.23459795	    -11.55376086	     13.50266376	     -3.46706001	     -8.32475858	     21.69798558	     -3.75623101	      0.00000000	      7.52667391	     -7.29338645	      8.80588649	    -63.92344940	     16.78723218	     -2.56285930	      0.00000000	    -27.00951899	      9.97576180	     -8.83540897
      5.04000000	     13.37579731	     -5.91398559	     11.78932976	      0.44106205	      0.93700983	     -0.23419956	    -12.16633854	     13.30923206	     -3.36168810	     -7.87565067	     21.77946067	     -3.46408787	      0.00000000	      8.06672038	     -6.88831854	      8.53277197	    -62.98936648	     17.10722734	     -2.63936116	      0.00000000	    -27.03705551	      9.62576021	     -8.48132540
      5.04500000	     13.48198425	     -5.73960338	     11.30576576	      0.44677569	      0.93757209	     -0.23371633	    -12.96703157	     13.11838876	     -3.13991936	     -7.42630395	     21.80872635	     -3.17565162	      0.00000000	      8.36856910	     -6.55112707	      8.12222686	    -61.94150806	     17.41145457	     -2.78631819	      0.00000000	    -27.29410117	      9.26323589	     -7.95481094
      5.05000000	     13.37557546	     -5.60584965	     11.05739427	      0.45255403	      0.93775927	     -0.23341290	    -13.51650663	     12.98999328	     -3.13772551	     -6.94395004	     21.82435205	     -3.02817733	      0.00000000	      8.96159681	     -6.19753164	      7.97481987	    -60.89137715	     17.72561534	     -2.70148722	      0.00000000	    -27.23490669	      8.99975520	     -7.76157842
      5.05500000	     13.44789461	     -5.44179450	     10.56276947	      0.45827103	      0.93819943	     -0.23296661	    -14.27434428	     12.78157891	     -2.93362239	     -6.49891755	     21.86862556	     -2.68777948	      0.00000000	      9.25002524	     -5.88158345	      7.55795540	    -59.68805267	     17.97278121	     -2.79749775	      0.00000000	    -27.44448213	      8.64326458	     -7.24786278
      5.06000000	     13.43997312	     -5.29981975	     10.19842773	      0.46403567	      0.93843557	     -0.23258714	    -14.93539435	     12.61937686	     -2.84161459	     -6.03087590	     21.90675276	     -2.48005040	      0.00000000	      9.64215203	     -5.57835351	      7.26427686	    -58.44467285	     18.24725000	     -2.76566611	      0.00000000	    -27.52015420	      8.34069957	     -6.93150838
      5.06500000	     13.41221097	     -5.18361607	      9.83980467	      0.46977541	      0.93859498	     -0.23227611	    -15.56373051	     12.47101962	     -2.72772086	     -5.57300808	     21.92299950	     -2.26655390	      0.00000000	     10.03789415	     -5.29567722	      7.00312939	    -57.13622016	     18.50106649	     -2.68555067	      0.00000000	    -27.57093213	      8.07977259	     -6.61383610
      5.07000000	     13.42747473	     -5.07725075	      9.44669756	      0.47551580	      0.93876479	     -0.23189045	    -16.23903577	     12.32869998	     -2.61662876	     -5.11308917	     21.91909136	     -2.06698160	      0.00000000	     10.35356683	     -5.06201782	      6.67362504	    -55.74573379	     18.71043226	     -2.60944158	      0.00000000	    -27.67418788	      7.80743215	     -6.23798273
      5.07500000	     13.33855885	     -5.01137942	      9.19304146	      0.48125760	      0.93870126	     -0.23163007	    -16.78187506	     12.25157192	     -2.59366805	     -4.64835077	     21.89357717	     -1.94427303	      0.00000000	     10.80674236	     -4.83750927	      6.51302930	    -54.33574591	     18.91422180	     -2.38862814	      0.00000000	    -27.62782813	      7.61435956	     -6.00972978
